<?xml version="1.0" encoding="UTF-8"?>
<svg version="1.1" xmlns="http://www.w3.org/2000/svg" width="1109" height="372">
<path d="M0 0 C365.97 0 731.94 0 1109 0 C1109 122.76 1109 245.52 1109 372 C743.03 372 377.06 372 0 372 C0 249.24 0 126.48 0 0 Z " fill="#FDFDFD" transform="translate(0,0)"/>
<path d="M0 0 C8.79071935 6.4425135 14.69441799 13.28304522 17.6015625 23.7890625 C18.00444565 27.03582674 17.5501705 29.57910311 16.97753906 32.77148438 C16.44114873 36.54608303 16.23850082 39.52579197 18 43 C23.99901027 48.53604621 31.75557529 51.93317862 39.01757812 55.50585938 C42.74798855 57.37472904 46.27728747 59.47830491 49.8125 61.6875 C56.12646423 65.51853445 62.51552022 69.2173631 68.92358398 72.88842773 C72.78227188 75.10568946 76.60491278 77.3565762 80.3671875 79.734375 C81.04587891 80.15912109 81.72457031 80.58386719 82.42382812 81.02148438 C83.68827168 81.8176155 84.94538459 82.62555935 86.19335938 83.44726562 C88.84741834 85.1102327 90.54078658 86.01985072 93.7109375 85.8828125 C95.94931516 85.0195474 97.41786285 84.15178096 99.25 82.625 C107.66259773 76.42340552 116.78933805 76.07271594 127 77 C139.58673459 79.49066126 147.95959904 86.53505618 155 97 C159.58351314 104.94475611 160.11045928 113.36742946 158.3515625 122.2890625 C155.20292911 133.78022879 149.03518823 141.59946475 139 148 C138.12859375 148.26683594 137.2571875 148.53367188 136.359375 148.80859375 C133.73185023 149.82691415 133.73185023 149.82691415 132.7421875 152.7578125 C132.45601563 153.86898437 132.16984375 154.98015625 131.875 156.125 C131.38966797 157.89617187 131.38966797 157.89617187 130.89453125 159.703125 C130.59933594 160.79109375 130.30414063 161.8790625 130 163 C129.54488267 164.30033522 129.06975732 165.59410442 128.5625 166.875 C125.13971414 175.73724015 122.30825004 184.81077623 119.6875 193.9375 C117.35097755 202.06787685 114.66491938 210.06775936 111.9597168 218.08178711 C109.07856074 226.6591958 106.46051573 235.29355971 104 244 C104.86625 244.36931641 104.86625 244.36931641 105.75 244.74609375 C112.85411807 248.70515955 117.5555615 256.43190791 120 264 C122.50574981 274.72188185 120.9025707 284.14925329 116 294 C109.69151306 303.01897752 101.5395872 308.96197369 91 312 C88.06945857 312.43852754 85.21033781 312.52436228 82.25 312.5 C81.07691284 312.49468262 81.07691284 312.49468262 79.88012695 312.48925781 C71.84331834 312.26135694 64.59017052 310.19374423 58.48828125 304.765625 C56.19236414 302.78773176 56.19236414 302.78773176 53.67578125 302.9453125 C49.84804206 304.45405641 46.60941156 306.60850522 43.1875 308.875 C32.7613111 315.62899899 22.08664243 321.93511585 11.38354492 328.23583984 C10.05759922 329.0175972 8.73183079 329.79965529 7.40625 330.58203125 C6.44970268 331.14618744 6.44970268 331.14618744 5.47383118 331.72174072 C0.6239248 334.59627723 -4.131389 337.60133298 -8.84570312 340.6940918 C-14.64653201 344.21048274 -21.46068014 343.70732834 -28 343 C-32.04680941 341.54159001 -35.41440518 339.35289373 -39 337 C-40.6447767 336.02034615 -42.28982446 335.0411151 -43.93969727 334.07006836 C-52.17657894 329.20125482 -60.31473824 324.16104145 -68.484375 319.18066406 C-74.8303031 315.31361413 -81.1884873 311.46832911 -87.57226562 307.6640625 C-90.09050026 306.1608155 -92.55871378 304.62752415 -95 303 C-97.83765264 303.19570018 -99.26798237 304.18503545 -101.625 305.8125 C-111.44113255 312.41300292 -121.44415482 313.28643666 -133 312 C-144.00500034 309.53288405 -152.31552431 301.92165273 -158.48046875 292.8125 C-163.37012856 284.04672332 -163.38587417 273.7503947 -162 264 C-159.57648159 255.70716064 -154.62493634 249.44617515 -148 244 C-147.34 243.67 -146.68 243.34 -146 243 C-146.56139543 237.40475884 -147.61309591 232.39303949 -149.375 227.0625 C-149.60123047 226.36084717 -149.82746094 225.65919434 -150.06054688 224.9362793 C-150.50555162 223.55998417 -150.95365641 222.18468645 -151.40527344 220.81054688 C-151.88494759 219.35025806 -152.35427253 217.88657205 -152.8203125 216.421875 C-154.12799911 212.36353725 -155.62766349 208.4134279 -157.20703125 204.453125 C-160.62930099 195.58543113 -163.38161137 186.51496856 -166.1875 177.4375 C-166.98699689 174.85475122 -167.78781287 172.2724492 -168.59284973 169.69142151 C-169.08922914 168.09978752 -169.58246824 166.50716964 -170.07206726 164.91343689 C-171.15337676 161.44428521 -172.35526093 158.23371619 -174 155 C-174.125 152.25 -174.125 152.25 -174 150 C-174.73476562 149.88785156 -175.46953125 149.77570313 -176.2265625 149.66015625 C-184.04161054 147.79995467 -190.55629795 141.46658134 -195 135 C-200.3192043 125.06438782 -202.85114413 115.95236407 -200.234375 104.7109375 C-196.50897976 93.71839802 -189.94251438 85.66554001 -179.5625 80.375 C-170.57513629 76.32072641 -160.65501409 75.49725488 -150.97265625 77.68359375 C-145.77641677 79.66194085 -141.45284574 82.5814242 -137.10546875 86.0234375 C-135.01262197 87.26385517 -135.01262197 87.26385517 -132.6796875 86.40625 C-129.40605997 84.68831136 -126.15109356 82.95243996 -122.9375 81.125 C-122.2455957 80.73352783 -121.55369141 80.34205566 -120.84082031 79.9387207 C-112.67226115 75.2871298 -104.63065818 70.42377432 -96.58642578 65.56152344 C-93.13982331 63.48067868 -89.68806786 61.40856332 -86.23242188 59.34277344 C-84.54706313 58.32935934 -82.86724638 57.30666623 -81.19335938 56.27441406 C-77.34031127 53.91123172 -73.55068871 51.73500153 -69.41015625 49.9140625 C-65.2498525 47.99859525 -62.16290795 46.38445291 -59 43 C-57.52195963 37.49905186 -58.4343832 31.74955685 -58.91699219 26.15380859 C-59.19759135 18.87308564 -54.50181428 12.48376083 -50.046875 7.10546875 C-36.63172351 -6.69370425 -16.79115007 -9.49735653 0 0 Z " fill="#2F7D2B" transform="translate(240,22)"/>
<path d="M0 0 C0.99257812 0.16242188 1.98515625 0.32484375 3.0078125 0.4921875 C6.96365849 1.05503537 10.88420565 1.14824735 14.875 1.125 C16.85113281 1.12886719 16.85113281 1.12886719 18.8671875 1.1328125 C23.27928813 1.05752068 27.62597074 0.55706378 32 0 C33.77925688 4.23130969 35.55736368 8.46310026 37.33447266 12.6953125 C37.93735799 14.1306619 38.54054048 15.56588654 39.14404297 17.00097656 C42.49685871 24.97433937 45.82024146 32.95565312 49 41 C49.62291252 42.56151145 50.24663966 44.12269814 50.87109375 45.68359375 C51.20093262 46.50843262 51.53077148 47.33327148 51.87060547 48.18310547 C52.9574071 50.89376635 54.04813927 53.60282362 55.14004517 56.31143188 C56.18287175 58.89946836 57.22350872 61.48838273 58.26391602 64.07739258 C58.79717477 65.40295874 59.33135771 66.72815348 59.86645508 68.05297852 C68 88.19685115 68 88.19685115 68 93 C65.9539389 94.48437465 63.98484402 95.73359963 61.796875 96.9765625 C60.84557709 97.53263687 60.84557709 97.53263687 59.87506104 98.09994507 C58.52962843 98.88342818 57.18102919 99.6614944 55.82958984 100.43457031 C53.76573494 101.61599277 51.71239921 102.81416769 49.66015625 104.015625 C48.35215011 104.77445128 47.04357401 105.53229613 45.734375 106.2890625 C45.12068054 106.6463443 44.50698608 107.0036261 43.87469482 107.37173462 C38.18812396 110.61134903 38.18812396 110.61134903 35 111 C32.96484375 110.0390625 32.96484375 110.0390625 30.9375 108.625 C25.92313113 105.179426 21.74708158 104.76438566 15.75 104.6875 C15.01136719 104.65849609 14.27273437 104.62949219 13.51171875 104.59960938 C7.83094246 104.53448584 4.75800938 105.93869193 0 109 C-0.66 109 -1.32 109 -2 109 C-2 109.66 -2 110.32 -2 111 C-5.7179693 110.42813077 -8.35283028 109.42467332 -11.546875 107.453125 C-12.3925 106.9375 -13.238125 106.421875 -14.109375 105.890625 C-14.98078125 105.34921875 -15.8521875 104.8078125 -16.75 104.25 C-18.47306327 103.19125028 -20.19701649 102.13394748 -21.921875 101.078125 C-22.76041016 100.56443359 -23.59894531 100.05074219 -24.46289062 99.52148438 C-28.25400355 97.24798402 -32.11628098 95.11046055 -36 93 C-34.61301099 86.81900793 -32.60310528 81.16101517 -30.1875 75.3125 C-29.464063 73.53677621 -28.74140619 71.76073437 -28.01953125 69.984375 C-27.67100098 69.12908203 -27.3224707 68.27378906 -26.96337891 67.39257812 C-25.71836969 64.30056335 -24.54368114 61.18405875 -23.375 58.0625 C-21.77033077 53.84420565 -19.99253296 49.7670012 -18.0625 45.6875 C-15.46683828 40.1767105 -13.27852298 34.59586285 -11.18432617 28.8828125 C-9.31983074 23.80462055 -7.27930556 18.82095875 -5.16796875 13.83984375 C-3.2933567 9.28184053 -1.63761083 4.64752123 0 0 Z " fill="#FBFCFB" transform="translate(203,90)"/>
<path d="M0 0 C7.60672826 4.90272073 12.46359471 12.5422756 14.56005859 21.35400391 C15.32679744 25.96549978 15.18453657 30.58556481 15.1875 35.25 C15.19974609 36.24902344 15.21199219 37.24804688 15.22460938 38.27734375 C15.25153073 52.00723582 11.69005092 63.91843187 2 74 C-0.54182629 75.95269272 -3.15192804 77.53779399 -6 79 C-6.59901123 79.34240723 -7.19802246 79.68481445 -7.81518555 80.03759766 C-11.87655524 81.82661535 -16.25010501 81.41135521 -20.625 81.4375 C-21.57246094 81.47037109 -22.51992188 81.50324219 -23.49609375 81.53710938 C-24.90955078 81.54774414 -24.90955078 81.54774414 -26.3515625 81.55859375 C-27.61734131 81.57877563 -27.61734131 81.57877563 -28.90869141 81.59936523 C-32 81 -32 81 -42 76 C-42 88.87 -42 101.74 -42 115 C-49.26 115 -56.52 115 -64 115 C-64 76.06 -64 37.12 -64 -3 C-57.4 -3 -50.8 -3 -44 -3 C-43.34 -0.03 -42.68 2.94 -42 6 C-41.05125 5.0925 -40.1025 4.185 -39.125 3.25 C-28.22122136 -5.91612468 -12.36139348 -7.3293218 0 0 Z " fill="#1D5828" transform="translate(774,167)"/>
<path d="M0 0 C1.58542603 0.00132935 1.58542603 0.00132935 3.20288086 0.00268555 C15.11793187 0.18049519 25.7572144 2.49358793 36.625 7.375 C36.00442344 9.45965525 35.3783655 11.54267928 34.75 13.625 C34.40195312 14.78515625 34.05390625 15.9453125 33.6953125 17.140625 C32.83967611 19.72627072 31.9312454 21.99786874 30.625 24.375 C26.81630975 23.86031213 23.27567702 22.97923159 19.609375 21.8671875 C8.50788032 18.82380712 -5.75734161 17.91726708 -16.375 22.9375 C-24.67709641 28.10672984 -29.87848359 34.19297162 -33.375 43.375 C-33.91456482 45.74309004 -34.16840719 47.94753454 -34.375 50.375 C-34.705 50.705 -35.035 51.035 -35.375 51.375 C-36.36307208 65.24601194 -35.35842064 80.14046458 -26.375 91.375 C-20.72439125 97.48025543 -13.81373035 101.01292177 -5.41699219 101.48510742 C-3.13124647 101.54559444 -0.84902062 101.56061187 1.4375 101.5625 C2.59088867 101.58086914 2.59088867 101.58086914 3.76757812 101.59960938 C4.91323242 101.60250977 4.91323242 101.60250977 6.08203125 101.60546875 C6.76241455 101.60957764 7.44279785 101.61368652 8.14379883 101.61791992 C11.69963147 101.26978911 15.15884215 100.24153946 18.625 99.375 C18.955 92.115 19.285 84.855 19.625 77.375 C13.355 77.375 7.085 77.375 0.625 77.375 C0.625 71.435 0.625 65.495 0.625 59.375 C13.495 59.375 26.365 59.375 39.625 59.375 C39.625 76.865 39.625 94.355 39.625 112.375 C19.54572447 120.40671021 -5.23241374 125.04448382 -26.40625 117.6953125 C-40.02133303 111.64018347 -49.89126891 102.29342802 -55.61791992 88.48242188 C-58.83285831 79.5332609 -59.90117938 70.97109889 -59.8125 61.5 C-59.80492676 60.36103271 -59.79735352 59.22206543 -59.78955078 58.04858398 C-59.48151439 42.30162897 -54.78519488 28.25876843 -43.83984375 16.578125 C-36.51341247 10.02961907 -27.95444151 4.74820703 -18.375 2.375 C-17.37082031 2.03082031 -16.36664063 1.68664062 -15.33203125 1.33203125 C-10.29538044 -0.10251303 -5.20215207 -0.00781536 0 0 Z " fill="#1E5928" transform="translate(505.375,128.625)"/>
<path d="M0 0 C1.40455609 0.85643664 2.80599029 1.71840385 4.19140625 2.60546875 C10.46715924 6.23466202 16.43455245 6.43113877 23.5625 5.5625 C28.09963228 4.29328914 32.19656986 2.92843014 35.5625 -0.4375 C39.10804157 -0.10660156 41.30578504 1.66074397 44.0546875 3.80859375 C44.91779541 4.47624756 45.78090332 5.14390137 46.67016602 5.83178711 C48.03999634 6.90505249 48.03999634 6.90505249 49.4375 8 C51.33858726 9.47037599 53.24093267 10.93912671 55.14453125 12.40625 C56.53599365 13.47939453 56.53599365 13.47939453 57.95556641 14.57421875 C61.29592342 17.12187445 64.6906449 19.58119599 68.125 22 C74.36533594 26.40186571 80.47782936 30.94884863 86.5625 35.5625 C85.22916667 40.89583333 83.89583333 46.22916667 82.5625 51.5625 C39.6625 51.5625 -3.2375 51.5625 -47.4375 51.5625 C-50.4375 38.5625 -50.4375 38.5625 -49.4375 34.5625 C-47.91308594 33.07714844 -47.91308594 33.07714844 -45.921875 31.671875 C-44.80184082 30.86641235 -44.80184082 30.86641235 -43.65917969 30.04467773 C-42.84352539 29.47305908 -42.02787109 28.90144043 -41.1875 28.3125 C-39.45703088 27.07082359 -37.72791523 25.8272592 -36 24.58203125 C-35.0925 23.93057129 -34.185 23.27911133 -33.25 22.60791016 C-27.60689303 18.50392142 -22.09239273 14.22963731 -16.55761719 9.98144531 C-14.1896193 8.16791445 -11.81558004 6.36278233 -9.4375 4.5625 C-8.75228271 4.03809326 -8.06706543 3.51368652 -7.36108398 2.97338867 C-2.72107336 -0.48839778 -2.72107336 -0.48839778 0 0 Z " fill="#FCFDFC" transform="translate(201.4375,242.4375)"/>
<path d="M0 0 C7.59 0 15.18 0 23 0 C23.33 15.18 23.66 30.36 24 46 C26.64 43.69 29.28 41.38 32 39 C37.19751427 36.14749217 41.51632251 35.47863037 47.3125 35.5625 C48.43180908 35.57603516 48.43180908 35.57603516 49.57373047 35.58984375 C57.83480147 35.84794621 64.07932467 37.61100758 69.9375 43.6875 C76.84451818 51.61275182 76.41069464 61.73889241 76.29296875 71.66015625 C76.28736211 73.05976401 76.28309707 74.45937773 76.28010559 75.85899353 C76.26874061 79.51362838 76.23934742 83.16789622 76.20599365 86.8223877 C76.17511085 90.56318195 76.16156165 94.30403644 76.14648438 98.04492188 C76.11446788 105.36346664 76.06177039 112.6816348 76 120 C68.74 120 61.48 120 54 120 C53.98541748 118.26919189 53.97083496 116.53838379 53.95581055 114.75512695 C53.90409994 109.02733942 53.83879814 103.29981404 53.76428509 97.57227802 C53.71961627 94.10069934 53.68035293 90.62923706 53.65356445 87.1574707 C53.62250545 83.1632744 53.56771812 79.16970632 53.51171875 75.17578125 C53.50532883 73.93290848 53.4989389 72.69003571 53.49235535 71.40950012 C53.47256119 70.24867416 53.45276703 69.08784821 53.43237305 67.8918457 C53.41571846 66.36295464 53.41571846 66.36295464 53.39872742 64.80317688 C52.93614248 61.55106189 51.90673221 59.65211726 50 57 C45.7399565 54.07177134 40.9641187 54.61050761 36 55 C33.54589606 55.48808387 31.37638798 56.17553887 29 57 C27.515 57.495 27.515 57.495 26 58 C24.83333333 59.91666667 24.83333333 59.91666667 24 62 C23.67 62.66 23.34 63.32 23 64 C22.88055524 65.7865453 22.82277682 67.57736251 22.79467773 69.36767578 C22.77473251 70.48868683 22.75478729 71.60969788 22.73423767 72.76467896 C22.70916893 74.58659256 22.70916893 74.58659256 22.68359375 76.4453125 C22.66281265 77.68546112 22.64203156 78.92560974 22.62062073 80.20333862 C22.56622295 83.50111823 22.51599905 86.7989272 22.46777344 90.09680176 C22.41754766 93.46172653 22.36186723 96.8265605 22.30664062 100.19140625 C22.19938439 106.79420082 22.09813214 113.39706377 22 120 C14.74 120 7.48 120 0 120 C0 80.4 0 40.8 0 0 Z " fill="#1F5929" transform="translate(803,127)"/>
<path d="M0 0 C2.078125 1.70703125 2.078125 1.70703125 4.25 3.8125 C13.19681169 11.89209246 21.31911459 12.92263678 33 14 C30.97495757 20.99709784 28.71932334 27.90311635 26.37890625 34.80078125 C25.25824053 38.15983038 24.21441157 41.5393159 23.1796875 44.92578125 C20.95179082 52.20267037 18.62072145 59.44415311 16.27319336 66.68310547 C15.56568694 68.86517096 14.85988362 71.04778186 14.15429688 73.23046875 C11.15298723 82.50397172 8.0982168 91.75840415 5 101 C4.03964844 100.83628906 3.07929688 100.67257812 2.08984375 100.50390625 C-2.42413725 99.85905182 -6.88621642 99.88982338 -11.4375 99.9375 C-12.67790039 99.94426758 -12.67790039 99.94426758 -13.94335938 99.95117188 C-15.96227146 99.96284189 -17.98114574 99.98077282 -20 100 C-20.40202637 98.94949463 -20.80405273 97.89898926 -21.21826172 96.81665039 C-28.37569821 78.12228251 -35.54607735 59.43882697 -43.046875 40.87890625 C-43.69953489 39.25325291 -44.35068231 37.62699117 -45 36 C-45.30615234 35.23413574 -45.61230469 34.46827148 -45.92773438 33.67919922 C-47.1090254 30.6454291 -48 28.28565709 -48 25 C-46.0065918 23.45703125 -46.0065918 23.45703125 -43.19921875 21.8125 C-42.16756592 21.20083984 -41.13591309 20.58917969 -40.07299805 19.95898438 C-38.95578369 19.31251953 -37.83856934 18.66605469 -36.6875 18 C-34.97308813 16.9941007 -33.25867627 15.98820139 -31.54426575 14.9822998 C-29.81033603 13.9674835 -28.07333737 12.95808 -26.3359375 11.94921875 C-23.29034942 10.16965382 -20.26672264 8.35917939 -17.25 6.53125 C-15.56273595 5.52043937 -13.87525071 4.50999784 -12.1875 3.5 C-11.41301514 3.025625 -10.63853027 2.55125 -9.84057617 2.0625 C-9.12361572 1.6396875 -8.40665527 1.216875 -7.66796875 0.78125 C-6.74407349 0.2253418 -6.74407349 0.2253418 -5.80151367 -0.34179688 C-3.47064255 -1.19340665 -2.29554961 -0.86720763 0 0 Z " fill="#FBFCFC" transform="translate(331,160)"/>
<path d="M0 0 C4.28818403 0.59665127 7.35204162 2.12274344 11.0859375 4.28125 C11.6606076 4.61108887 12.23527771 4.94092773 12.82736206 5.28076172 C14.68063854 6.34697132 16.52786467 7.42319251 18.375 8.5 C19.64132594 9.23159707 20.90792817 9.96271613 22.17480469 10.69335938 C30.8397134 15.70053336 39.46482166 20.77438061 48 26 C46.8533859 32.7650232 44.60361323 38.2956182 41.6484375 44.47265625 C37.88865348 52.51788129 34.66008715 60.79795236 31.9375 69.25 C30.3979181 74.00813171 28.49911852 78.45533853 26.37109375 82.9765625 C23.68898107 88.89096481 21.38272111 94.96007904 19 101 C11.08 101 3.16 101 -5 101 C-12.20703125 79.37890625 -12.20703125 79.37890625 -12.9961853 77.01141357 C-13.52873336 75.41378989 -14.06130615 73.81617445 -14.59390259 72.21856689 C-15.91262011 68.26276343 -17.23095069 64.306832 -18.54833984 60.35058594 C-20.72391448 53.81836505 -22.90105847 47.28674546 -25.09677124 40.76126099 C-25.97434068 38.15285374 -26.84983235 35.54375149 -27.72509766 32.93457031 C-28.1681028 31.6158728 -28.6121567 30.29752725 -29.05712891 28.97949219 C-29.71534247 27.02891523 -30.36976799 25.07710364 -31.0234375 23.125 C-31.40419434 21.99320313 -31.78495117 20.86140625 -32.17724609 19.6953125 C-33 17 -33 17 -33 15 C-31.69289063 14.88785156 -31.69289063 14.88785156 -30.359375 14.7734375 C-19.01416889 13.52104462 -9.28682021 10.06285209 -1 2 C-0.67 1.34 -0.34 0.68 0 0 Z " fill="#FCFDFC" transform="translate(108,159)"/>
<path d="M0 0 C43.56 0 87.12 0 132 0 C133.98 5.94 133.98 5.94 136 12 C133.88936032 16.22127937 133.19805992 16.80703647 129.29296875 18.99609375 C128.32447998 19.5480542 127.35599121 20.10001465 126.3581543 20.66870117 C125.31183838 21.25240479 124.26552246 21.8361084 123.1875 22.4375 C120.98819621 23.69027631 118.79030408 24.94553373 116.59375 26.203125 C114.93085938 27.15348633 114.93085938 27.15348633 113.234375 28.12304688 C108.4882036 30.87731663 103.83624329 33.77279778 99.1875 36.6875 C96.6396168 38.27049577 94.08978879 39.85030097 91.5390625 41.42871094 C89.81631702 42.49482535 88.09500777 43.5632634 86.375 44.63378906 C83.82351455 46.21233084 81.25808138 47.76529959 78.6875 49.3125 C77.92912842 49.7871167 77.17075684 50.2617334 76.3894043 50.75073242 C71.69673905 53.53620143 67.51425517 55.34598948 62 54 C58.13801718 52.35414774 54.59503078 50.28423245 51 48.125 C49.98035156 47.53001709 48.96070313 46.93503418 47.91015625 46.32202148 C40.95014331 42.23696345 34.07309144 38.02135363 27.265625 33.6875 C20.81604169 29.59413077 14.25649847 25.67649662 7.71484375 21.73266602 C6.77253906 21.16217529 5.83023438 20.59168457 4.859375 20.00390625 C4.01858398 19.49674072 3.17779297 18.9895752 2.31152344 18.46704102 C0.11789435 17.07482331 -1.94586021 15.58909059 -4 14 C-3.79503906 13.32453125 -3.59007812 12.6490625 -3.37890625 11.953125 C-3.10949219 11.06109375 -2.84007812 10.1690625 -2.5625 9.25 C-2.16224609 7.92742187 -2.16224609 7.92742187 -1.75390625 6.578125 C-1.11697887 4.40003136 -0.55038855 2.20155419 0 0 Z " fill="#FCFCFC" transform="translate(153,303)"/>
<path d="M0 0 C3.99501282 1.47963438 7.56400336 3.36876024 11.25 5.5 C11.85714844 5.8503833 12.46429688 6.2007666 13.08984375 6.56176758 C19.94467033 10.527104 26.76745124 14.54746476 33.58544922 18.57568359 C36.19142489 20.1129194 38.80065075 21.64454573 41.41015625 23.17578125 C52.37930546 29.62184449 63.25769234 36.18217436 74 43 C73.5247412 44.64696604 73.04468109 46.29254728 72.5625 47.9375 C72.29566406 48.85402344 72.02882813 49.77054688 71.75390625 50.71484375 C71 53 71 53 70 54 C69.87167451 56.53368245 69.81477296 59.02814843 69.8125 61.5625 C69.80025391 62.25408203 69.78800781 62.94566406 69.77539062 63.65820312 C69.76117118 68.74402463 70.6078631 73.10826205 72 78 C61.8004854 84.17855211 51.52249085 90.21704218 41.21484375 96.21337891 C40.22355469 96.79007324 39.23226562 97.36676758 38.2109375 97.9609375 C37.32712402 98.47446777 36.44331055 98.98799805 35.53271484 99.51708984 C33.7781247 100.54440626 32.05543243 101.62743902 30.36181641 102.75244141 C29.58241699 103.16413574 28.80301758 103.57583008 28 104 C27.01 103.67 26.02 103.34 25 103 C23.7962529 100.55886777 22.78504689 98.20297057 21.8203125 95.66796875 C21.52567108 94.92098221 21.23102966 94.17399567 20.92745972 93.40437317 C19.98270524 91.00274629 19.05352052 88.59544397 18.125 86.1875 C17.50756741 84.60700855 16.88908902 83.02692521 16.26953125 81.44726562 C15.35576266 79.1169425 14.44273765 76.78636295 13.53369141 74.45419312 C11.55296781 69.37763715 9.49455502 64.34022353 7.38037109 59.31762695 C4.46648377 52.31429924 1.66151596 45.26625867 -1.15820312 38.22460938 C-2.25926704 35.47687383 -3.3640017 32.73063093 -4.46875 29.984375 C-5.17210089 28.22925717 -5.87523392 26.47405202 -6.578125 24.71875 C-6.90725891 23.90208862 -7.23639282 23.08542725 -7.57550049 22.24401855 C-8.03167755 21.10132507 -8.03167755 21.10132507 -8.49707031 19.93554688 C-8.76400696 19.27002808 -9.0309436 18.60450928 -9.30596924 17.91882324 C-10.69763459 14.07121308 -10.69763459 14.07121308 -11 12 C-8.9375 9.6875 -8.9375 9.6875 -6 7 C-3.95392115 4.70533214 -1.97544904 2.35560418 0 0 Z " fill="#FCFDFC" transform="translate(253,73)"/>
<path d="M0 0 C1.39131742 1.59711646 2.71517335 3.25352684 4 4.9375 C6.54336771 8.51216924 6.54336771 8.51216924 10 11 C8.558476 18.94534113 5.74254486 26.00871876 2.625 33.4375 C1.65863376 35.76943992 0.69248443 38.10146975 -0.2734375 40.43359375 C-0.73814453 41.54959961 -1.20285156 42.66560547 -1.68164062 43.81542969 C-3.49452103 48.19454303 -5.2521011 52.5946419 -7 57 C-9.75 63.875 -9.75 63.875 -10.49780273 65.7434082 C-11.99733411 69.49062524 -13.49412992 73.23891544 -14.98828125 76.98828125 C-18.59073833 86.02163799 -22.21290435 95.04206222 -26 104 C-29.53067081 103.43910619 -32.0929198 102.58237978 -35.125 100.69921875 C-35.90456055 100.22194336 -36.68412109 99.74466797 -37.48730469 99.25292969 C-38.31649414 98.73633789 -39.14568359 98.21974609 -40 97.6875 C-41.7748179 96.60086326 -43.55090503 95.51629739 -45.328125 94.43359375 C-46.25044922 93.87140137 -47.17277344 93.30920898 -48.12304688 92.72998047 C-52.95390465 89.82507058 -57.84960573 87.03550055 -62.75 84.25 C-63.67296875 83.72494873 -64.5959375 83.19989746 -65.546875 82.65893555 C-67.6968908 81.43746601 -69.84784011 80.21768658 -72 79 C-71.84144531 77.85273438 -71.68289062 76.70546875 -71.51953125 75.5234375 C-70.171273 64.63679096 -69.56427962 53.8765098 -75 44 C-65.01867125 36.95626556 -54.64116237 30.85785 -43.92211914 24.99951172 C-38.46818095 22.00574824 -33.21824824 18.89456644 -28.08203125 15.38427734 C-24.80748924 13.20713696 -21.38467178 11.32459146 -17.9375 9.4375 C-13.59678629 7.03559797 -9.29896489 4.62348837 -5.125 1.9375 C-2 0 -2 0 0 0 Z " fill="#FBFDFB" transform="translate(186,73)"/>
<path d="M0 0 C11.21016618 -0.25606979 22.17861223 1.2196147 31.03125 8.71875 C37.55908776 15.65853868 37.45095533 24.34054804 37.5546875 33.3984375 C37.57405365 34.45252808 37.5934198 35.50661865 37.6133728 36.59265137 C37.67278664 39.93408307 37.71940062 43.27554994 37.765625 46.6171875 C37.80383994 48.89324355 37.84289369 51.16928569 37.8828125 53.4453125 C37.97845646 59.00247991 38.06361395 64.5597323 38.140625 70.1171875 C40.450625 70.7771875 42.760625 71.4371875 45.140625 72.1171875 C45.0537974 74.24296657 44.9456299 76.36788331 44.828125 78.4921875 C44.77011719 79.67554688 44.71210937 80.85890625 44.65234375 82.078125 C44.48347656 83.08101563 44.31460938 84.08390625 44.140625 85.1171875 C40.50843395 87.5386482 38.64903942 87.41588266 34.328125 87.4296875 C33.12542969 87.44644531 31.92273438 87.46320313 30.68359375 87.48046875 C26.11376652 87.01189771 22.80396244 85.70702863 19.4609375 82.51171875 C18.35416667 81.046875 17.24739583 79.58203125 16.140625 78.1171875 C15.59535156 78.51550781 15.05007813 78.91382813 14.48828125 79.32421875 C3.57859001 86.98897619 -6.43329574 88.61249775 -19.671875 86.5546875 C-25.83889669 84.95330618 -30.26289506 80.68400502 -33.5625 75.37890625 C-35.07961521 71.5632701 -35.30318811 68.22054611 -35.234375 64.1796875 C-35.25177734 63.16358398 -35.25177734 63.16358398 -35.26953125 62.12695312 C-35.23036087 55.31783465 -33.04959069 49.70247176 -28.51953125 44.53515625 C-16.2169539 34.02730783 1.07695763 35.96655083 16.140625 36.1171875 C15.9771094 27.51427437 15.9771094 27.51427437 12.140625 20.1171875 C8.44489293 17.58758448 4.52141043 17.77400356 0.203125 17.8046875 C-0.54380615 17.80597656 -1.2907373 17.80726563 -2.06030273 17.80859375 C-8.95158038 17.92607957 -15.23515157 19.18176222 -21.859375 21.1171875 C-22.70204211 19.37166277 -23.53317538 17.6205667 -24.359375 15.8671875 C-24.8234375 14.89265625 -25.2875 13.918125 -25.765625 12.9140625 C-26.859375 10.1171875 -26.859375 10.1171875 -26.859375 6.1171875 C-17.77971604 2.87530663 -9.67482358 0.39650916 0 0 Z " fill="#1E5828" transform="translate(651.859375,161.8828125)"/>
<path d="M0 0 C7.59 0 15.18 0 23 0 C25.99267174 6.98290072 28.70470616 13.92127028 31.0390625 21.1484375 C31.91104092 23.73601573 32.88476082 26.23184789 33.9375 28.75 C35.73541519 33.14174539 37.2094807 37.59909763 38.625 42.125 C38.83116943 42.78209961 39.03733887 43.43919922 39.24975586 44.11621094 C43 56.29347426 43 56.29347426 43 62 C43.66 62 44.32 62 45 62 C45.07476563 61.42636719 45.14953125 60.85273438 45.2265625 60.26171875 C46.6142834 51.29595333 49.45802081 42.86880503 52.26708984 34.27246094 C53.28658181 31.11142455 54.23581137 27.93209404 55.1875 24.75 C56.53225816 20.35048257 58.15899338 16.21897351 60 12 C61.38680419 8.01608978 62.69297874 4.01120316 64 0 C71.26 0 78.52 0 86 0 C82.98973354 11.7241957 78.98596101 22.96558074 74.2109375 34.0859375 C73.04061609 36.90225935 71.96425382 39.74458968 70.90185547 42.60302734 C67.76211124 50.94791333 64.4471844 59.22791399 61.16638184 67.51823425 C60.01239665 70.43426567 58.86260503 73.35177941 57.72167969 76.27294922 C44.63352367 109.77201521 44.63352367 109.77201521 27.97265625 117.2578125 C22.69338255 119.24407389 17.68200007 120.2841 12 120 C11.00749455 114.29309366 10.89522488 108.78591511 11 103 C12.08667969 102.65388672 12.08667969 102.65388672 13.1953125 102.30078125 C21.890886 99.36747446 27.02651388 96.51892693 31.43359375 88.2578125 C33.17097485 81.33225197 29.40049311 74.54416099 26.75 68.3125 C26.36714844 67.39533203 25.98429688 66.47816406 25.58984375 65.53320312 C24.39999166 62.68591492 23.2000526 59.8430018 22 57 C18.42828184 48.4789112 14.91963978 39.93304672 11.4375 31.375 C10.96892578 30.22515625 10.50035156 29.0753125 10.01757812 27.890625 C9.1005902 25.63855396 8.18564757 23.38564883 7.27294922 21.13183594 C6.47054089 19.15767137 5.6606853 17.18650193 4.84033203 15.21972656 C4.31802002 13.95467285 4.31802002 13.95467285 3.78515625 12.6640625 C3.48617432 11.94943848 3.18719238 11.23481445 2.87915039 10.49853516 C1.67471023 7.07553026 0.88009487 3.52037947 0 0 Z " fill="#1F5A29" transform="translate(987,164)"/>
<path d="M0 0 C0.7734375 -0.01224609 1.546875 -0.02449219 2.34375 -0.03710938 C7.63912518 -0.05043666 12.16101119 0.71773497 17.25 2.1875 C17.47577402 7.6060766 16.71670113 11.96237721 15.25 17.1875 C13.60451172 17.13529297 13.60451172 17.13529297 11.92578125 17.08203125 C10.47136955 17.05388135 9.0169412 17.02658248 7.5625 17 C6.84126953 16.97486328 6.12003906 16.94972656 5.37695312 16.92382812 C0.79117728 16.86100928 -2.17591999 17.23672893 -5.75 20.1875 C-8.25494771 23.59914657 -8.14570382 27.31016868 -8.375 31.4375 C-8.560625 34.77875 -8.560625 34.77875 -8.75 38.1875 C-2.15 38.1875 4.45 38.1875 11.25 38.1875 C11.25 43.7975 11.25 49.4075 11.25 55.1875 C4.65 55.1875 -1.95 55.1875 -8.75 55.1875 C-8.75 76.9675 -8.75 98.7475 -8.75 121.1875 C-16.01 121.1875 -23.27 121.1875 -30.75 121.1875 C-30.75 99.4075 -30.75 77.6275 -30.75 55.1875 C-34.38 55.1875 -38.01 55.1875 -41.75 55.1875 C-41.75 49.5775 -41.75 43.9675 -41.75 38.1875 C-38.12 38.1875 -34.49 38.1875 -30.75 38.1875 C-30.79640625 37.13691406 -30.8428125 36.08632812 -30.890625 35.00390625 C-31.25706424 23.31128981 -29.81987304 15.7504319 -21.6171875 6.9140625 C-15.07734459 0.86676006 -8.51526022 0.00695691 0 0 Z " fill="#1E5928" transform="translate(973.75,125.8125)"/>
<path d="M0 0 C6.6558819 3.97949565 11.77681963 9.90618425 14.1796875 17.37109375 C15.94924492 26.6863111 15.01070553 35.77992302 10.1875 43.92578125 C5.36250307 50.84464477 -0.53773123 53.92794166 -8.40625 56.55078125 C-19.77771159 57.25979324 -29.36268613 56.74420809 -38.546875 49.43359375 C-45.42404647 42.46973525 -47.71875 34.93800095 -47.71875 25.38232422 C-47.52090952 16.01412763 -43.85117906 10.23116789 -37.56640625 3.5 C-27.23659517 -5.82111343 -12.02080799 -5.73573499 0 0 Z " fill="#79C653" transform="translate(235.40625,27.44921875)"/>
<path d="M0 0 C5.55665191 4.09532462 8.61613464 9.1612997 10.40625 15.7734375 C11.48890902 27.10358999 10.35207048 36.17424491 3.15625 45.1484375 C-2.07834246 50.7207456 -8.365216 53.51746105 -15.94921875 53.9765625 C-26.91577824 54.11071002 -34.63825457 53.38001867 -42.87109375 45.60546875 C-49.13703415 38.94169087 -50.95413549 32.81002196 -50.96875 23.9609375 C-51.00548828 22.80754883 -51.00548828 22.80754883 -51.04296875 21.63085938 C-51.0836538 13.59556114 -48.10439943 7.72147419 -42.46875 2.0234375 C-30.0747398 -9.64506967 -13.89610883 -8.58042864 0 0 Z " fill="#78C754" transform="translate(97.59375,112.2265625)"/>
<path d="M0 0 C5.96186221 5.03232455 10.63367852 11.13708329 11.390625 19.04296875 C11.81656313 29.46207077 8.98773856 38.86660058 2.1796875 46.83984375 C-5.71499874 53.36154107 -14.81083448 54.98473366 -24.8203125 54.83984375 C-34.18441353 53.81290049 -40.29133392 48.09101081 -46.265625 41.1640625 C-51.08012563 34.54858201 -51.55845226 26.72090518 -50.8203125 18.83984375 C-48.68133907 9.7531099 -43.08213115 3.40958815 -35.8203125 -2.16015625 C-24.62581792 -9.01392844 -10.4081287 -7.36492152 0 0 Z " fill="#76C455" transform="translate(379.8203125,112.16015625)"/>
<path d="M0 0 C5.53141097 3.44950983 9.86263037 7.207933 13 13 C13.5775 13.99 14.155 14.98 14.75 16 C17.56572696 23.00042615 17.18837262 32.10258194 14.3125 39 C12.32191975 42.78989478 9.98585975 45.93556499 7 49 C6.34 49 5.68 49 5 49 C4.7525 49.61359375 4.505 50.2271875 4.25 50.859375 C2.2937004 54.20953806 -0.12470186 54.92846191 -3.6796875 56.234375 C-7.86360494 57.19913714 -11.84158659 57.44197346 -16.125 57.5 C-16.87652344 57.51836914 -17.62804687 57.53673828 -18.40234375 57.55566406 C-26.7279952 57.4645339 -33.09901721 53.76984984 -39 48 C-45.03107897 40.08107636 -47.05078133 31.88007378 -46 22 C-44.00503176 13.16322795 -38.31042143 5.48209294 -30.7421875 0.51953125 C-21.0421584 -4.4378637 -9.92309183 -4.61237002 0 0 Z " fill="#70C154" transform="translate(337,269)"/>
<path d="M0 0 C6.07530858 4.32117019 11.60144054 9.80432163 14 17 C14.20757159 20.66913306 14.09638465 24.32774466 14 28 C13.99484375 28.87914062 13.9896875 29.75828125 13.984375 30.6640625 C13.69051434 37.44384779 11.4056095 40.989699 7 46 C6.2575 47.0725 5.515 48.145 4.75 49.25 C-1.34873205 55.34873205 -9.61219666 56.86536431 -18 57 C-18.75152344 57.01289063 -19.50304687 57.02578125 -20.27734375 57.0390625 C-28.25791084 56.67439687 -35.01883069 52.47540084 -40.375 46.6875 C-47.14301413 37.80448145 -48.3824028 28.90802206 -47 18 C-44.04679452 8.56358563 -37.35640452 2.74054819 -29.03515625 -2.15625 C-19.87271371 -6.34036753 -8.51997094 -4.96025705 0 0 Z " fill="#73C255" transform="translate(132,270)"/>
<path d="M0 0 C6.09896765 2.28000734 11.52097875 5.65798697 17.125 8.9375 C18.22199219 9.57107422 19.31898438 10.20464844 20.44921875 10.85742188 C21.49980469 11.47037109 22.55039063 12.08332031 23.6328125 12.71484375 C24.59074707 13.27292725 25.54868164 13.83101074 26.53564453 14.40600586 C28.67687726 15.79099779 30.30369036 17.11414465 32 19 C31.67515625 19.50660156 31.3503125 20.01320312 31.015625 20.53515625 C29.62599237 23.90768774 29.73558025 26.80011895 29.75 30.4375 C29.74484375 31.73558594 29.7396875 33.03367188 29.734375 34.37109375 C29.98324244 37.77106222 30.63535732 39.92955396 32 43 C32 43.99 32 44.98 32 46 C30.13856857 47.53607199 28.3151758 48.85614292 26.3125 50.1875 C19.86585935 54.62057181 13.63681848 59.29045871 7.4375 64.0625 C-5.12015572 73.6611808 -5.12015572 73.6611808 -10.5625 77.5625 C-11.53316406 78.26503906 -12.50382813 78.96757812 -13.50390625 79.69140625 C-16 81 -16 81 -18.07421875 80.90625 C-20.37984481 79.8212495 -22.24406187 78.50881821 -24.25 76.9375 C-24.95640625 76.38964844 -25.6628125 75.84179688 -26.390625 75.27734375 C-26.92171875 74.85582031 -27.4528125 74.43429687 -28 74 C-26.55791519 66.26518145 -23.9607341 59.27667302 -21 52 C-20.63003906 51.08863281 -20.26007813 50.17726562 -19.87890625 49.23828125 C-17.91278603 44.46924915 -15.88473646 39.72888373 -13.82421875 35 C-8.33720128 22.37510381 -8.33720128 22.37510381 -3.7734375 9.3984375 C-2.72778072 6.15584527 -1.40893632 3.09965991 0 0 Z " fill="#FAFCFA" transform="translate(163,190)"/>
<path d="M0 0 C2.58991665 1.50599123 3.09130639 3.22453142 4.19628906 5.98364258 C4.82664062 7.52858398 4.82664062 7.52858398 5.46972656 9.10473633 C6.1078125 10.73475586 6.1078125 10.73475586 6.75878906 12.39770508 C7.396875 13.9697168 7.396875 13.9697168 8.04785156 15.57348633 C9.99745958 20.41162402 11.86431781 25.27049399 13.61816406 30.18286133 C15.37184801 35.06283093 17.27441481 39.87379761 19.21191406 44.68286133 C19.51939575 45.44606689 19.82687744 46.20927246 20.14367676 46.99560547 C21.42547213 50.17230812 22.7098423 53.34795569 23.99707031 56.52246094 C24.94665987 58.86640548 25.89204771 61.21200966 26.83691406 63.55786133 C27.2774411 64.63898949 27.2774411 64.63898949 27.72686768 65.74195862 C29.75878906 70.79608564 29.75878906 70.79608564 29.75878906 73.02270508 C26.79691634 75.19474507 24.25192915 76.85832505 20.75878906 78.02270508 C20.75878906 78.68270508 20.75878906 79.34270508 20.75878906 80.02270508 C15.31342213 79.63681293 11.72361094 76.423978 7.50878906 73.27270508 C6.72173584 72.69431885 5.93468262 72.11593262 5.1237793 71.52001953 C-1.07302639 66.94676086 -7.19685374 62.27673497 -13.29858398 57.57763672 C-18.87170638 53.28599559 -24.51862966 49.1137945 -30.24121094 45.02270508 C-29.71852628 42.25994331 -29.13251507 39.69661748 -28.24121094 37.02270508 C-28.14501749 34.58674753 -28.11138828 32.14805641 -28.11621094 29.71020508 C-28.11363281 28.41469727 -28.11105469 27.11918945 -28.10839844 25.78442383 C-28.22716262 22.42060311 -28.65340026 19.32804567 -29.24121094 16.02270508 C-25.47874557 13.70977019 -21.70682512 11.41339571 -17.92529297 9.13183594 C-16.64034264 8.35343697 -15.35808146 7.57058072 -14.07861328 6.78320312 C-12.23867005 5.65197348 -10.38964194 4.5371415 -8.53808594 3.42504883 C-7.42788086 2.74949951 -6.31767578 2.0739502 -5.17382812 1.37792969 C-2.24121094 0.02270508 -2.24121094 0.02270508 0 0 Z " fill="#FAFBFA" transform="translate(274.2412109375,190.977294921875)"/>
<path d="M0 0 C0.02768522 1.64573233 0.04669585 3.29161069 0.0625 4.9375 C0.07410156 5.85402344 0.08570313 6.77054688 0.09765625 7.71484375 C-0.02510656 11.84458474 -0.49450806 15.90192495 -1 20 C-2.84464844 20.12955078 -2.84464844 20.12955078 -4.7265625 20.26171875 C-6.35947531 20.4024871 -7.99228295 20.54447905 -9.625 20.6875 C-10.83736328 20.76774414 -10.83736328 20.76774414 -12.07421875 20.84960938 C-17.97119969 21.40095312 -20.89247056 22.68393445 -25 27 C-26.96236587 30.16092625 -27.26607917 32.62554189 -27.31884766 36.31933594 C-27.33871735 37.38013367 -27.35858704 38.4409314 -27.37905884 39.53387451 C-27.39638565 41.24187225 -27.39638565 41.24187225 -27.4140625 42.984375 C-27.43342865 44.15510559 -27.4527948 45.32583618 -27.4727478 46.53204346 C-27.53252707 50.27128819 -27.578923 54.01056374 -27.625 57.75 C-27.66318124 60.28516968 -27.70223305 62.8203264 -27.7421875 65.35546875 C-27.83822752 71.57020731 -27.92226518 77.7850066 -28 84 C-35.26 84 -42.52 84 -50 84 C-50 56.61 -50 29.22 -50 1 C-43.73 1 -37.46 1 -31 1 C-30.67 5.29 -30.34 9.58 -30 14 C-29.34 14 -28.68 14 -28 14 C-27.9175 13.443125 -27.835 12.88625 -27.75 12.3125 C-25.94017819 6.73221609 -21.78788472 3.6148419 -16.79296875 0.9375 C-11.34901393 -0.88984148 -5.66371828 -0.36254242 0 0 Z " fill="#1E5928" transform="translate(614,163)"/>
<path d="M0 0 C7.26 0 14.52 0 22 0 C22 27.39 22 54.78 22 83 C14.74 83 7.48 83 0 83 C0 55.61 0 28.22 0 0 Z " fill="#1B5424" transform="translate(897,164)"/>
<path d="M0 0 C6.07787807 5.62203721 8.22359281 10.42930625 8.6875 18.625 C8.86567654 28.95923933 8.37823878 38.12147909 1.5 46.3125 C-3.92788013 50.93197245 -9.02296363 50.78145503 -16 50.84375 C-20.34363852 50.18444772 -22.74900413 48.56086479 -26.5 46.3125 C-26.62395838 40.86824783 -26.7145074 35.4248239 -26.7746582 29.97949219 C-26.79974245 28.12876062 -26.83381845 26.27812753 -26.87719727 24.42773438 C-26.93811995 21.76147117 -26.96626991 19.09652175 -26.98828125 16.4296875 C-27.01408768 15.60757782 -27.0398941 14.78546814 -27.06648254 13.93844604 C-27.06849284 9.7845254 -26.79695166 7.14656972 -24.12963867 3.85986328 C-17.47303955 -2.58846605 -8.44989235 -4.07405524 0 0 Z " fill="#F8FAF9" transform="translate(758.5,181.6875)"/>
<path d="M0 0 C5.39247723 3.52107477 9.46114445 7.47098469 11.25 13.80078125 C12.02094242 21.73617138 10.57378438 26.27989583 6.1875 32.92578125 C2.09214388 37.5590349 -3.50227328 39.53464809 -9.5625 40.03125 C-16.43971452 39.77335446 -20.97271403 37.73543664 -25.75 32.80078125 C-30.09458673 27.47866251 -30.42577657 22.76548437 -30.19921875 15.9609375 C-29.32117065 9.78405999 -26.20237793 5.90281728 -21.625 1.86328125 C-15.58701325 -2.46831794 -6.81055744 -2.96994479 0 0 Z " fill="#92CA51" transform="translate(228.75,202.19921875)"/>
<path d="M0 0 C0.77923828 0.01353516 1.55847656 0.02707031 2.36132812 0.04101562 C4.26202404 0.07599776 6.16235834 0.12979041 8.0625 0.1875 C8.68202994 12.75019053 8.68202994 12.75019053 6.5 17.8125 C1.4779288 22.70580014 -2.03577611 24.43069853 -9 24.75 C-12.63903846 24.59475871 -15.59659146 24.38666019 -18.6875 22.375 C-21.53560684 18.34018198 -21.74044888 15.63963561 -21.453125 10.78125 C-20.677477 6.87950552 -19.19108457 5.40270652 -15.9375 3.1875 C-10.40684539 0.33229956 -6.17183582 -0.20625672 0 0 Z " fill="#F7F9F7" transform="translate(659.9375,209.8125)"/>
<path d="M0 0 C3.37393506 1.62045627 6.28420556 3.56841112 8 7 C8.42308538 11.59698532 8.53894467 15.70653278 6.75 20 C4.18620826 22.9300477 2.05812151 23.85999785 -1.8046875 24.37109375 C-11.1140534 24.57244136 -11.1140534 24.57244136 -14.6875 21.625 C-18.05501849 17.80241144 -18.44989521 15.37004544 -18.42578125 10.39453125 C-17.69260603 6.27126142 -15.08526198 3.68561665 -12 1 C-8.26558941 -0.86720529 -4.06554094 -0.55825338 0 0 Z " fill="#215C2C" transform="translate(913,126)"/>
<path d="M0 0 C7.26 0 14.52 0 22 0 C21.67 0.99 21.34 1.98 21 3 C14.4 2.67 7.8 2.34 1 2 C0.67 2.66 0.34 3.32 0 4 C0 2.68 0 1.36 0 0 Z " fill="#376A40" transform="translate(1051,164)"/>
<path d="M0 0 C2.67289025 3.87671106 2.01875653 7.79267603 1.625 12.25 C1.53992187 13.36761719 1.53992187 13.36761719 1.453125 14.5078125 C1.31223742 16.33935108 1.15748116 18.16981352 1 20 C-1.07182145 16.59336868 -1.24183505 13.95164035 -1.1875 10 C-1.18105469 8.96875 -1.17460938 7.9375 -1.16796875 6.875 C-1.02449792 4.41931318 -0.7046041 2.34492245 0 0 Z " fill="#70B14F" transform="translate(40,126)"/>
<path d="M0 0 C0 0.66 0 1.32 0 2 C-0.66 2.391875 -1.32 2.78375 -2 3.1875 C-6.0902449 5.65868963 -9.46705341 8.80018485 -13 12 C-13 9 -13 9 -11.1015625 6.9921875 C-10.28429688 6.29351562 -9.46703125 5.59484375 -8.625 4.875 C-7.81289063 4.17117187 -7.00078125 3.46734375 -6.1640625 2.7421875 C-2.75784753 0 -2.75784753 0 0 0 Z " fill="#64A931" transform="translate(61,103)"/>
<path d="M0 0 C0.33 0.99 0.66 1.98 1 3 C0.05075979 4.69608986 -0.95805197 6.35923126 -2 8 C-2.77464404 9.91977001 -3.50466846 11.85818903 -4.1875 13.8125 C-4.53167969 14.78832031 -4.87585938 15.76414062 -5.23046875 16.76953125 C-5.48441406 17.50558594 -5.73835937 18.24164063 -6 19 C-6.33 19 -6.66 19 -7 19 C-6.7481287 11.19198969 -4.37504865 6.40871041 0 0 Z " fill="#7EBC3D" transform="translate(188,32)"/>
<path d="M0 0 C0.33 0 0.66 0 1 0 C1.34833144 4.87664009 0.41685712 7.77050005 -2 12 C-2.66 12 -3.32 12 -4 12 C-3.52309796 10.37433394 -3.04340334 8.74948689 -2.5625 7.125 C-2.29566406 6.22007812 -2.02882812 5.31515625 -1.75390625 4.3828125 C-1 2 -1 2 0 0 Z " fill="#67A848" transform="translate(180,125)"/>
<path d="M0 0 C0.66 0.33 1.32 0.66 2 1 C0.35 2.98 -1.3 4.96 -3 7 C-3.66 6.67 -4.32 6.34 -5 6 C-3.35 4.02 -1.7 2.04 0 0 Z " fill="#356D41" transform="translate(625,205)"/>
</svg>
